<svg width="130" height="20" viewBox="0 0 130 20" fill="none" xmlns="http://www.w3.org/2000/svg">
<path fill-rule="evenodd" clip-rule="evenodd" d="M18.1435 9.36958C17.5328 9.36958 16.9631 9.61984 16.549 10.0343C16.5276 10.0554 16.5069 10.0789 16.4858 10.1C16.144 10.4412 15.6742 10.625 15.1097 10.5095C15.0405 10.4939 14.9737 10.4747 14.9094 10.4518C14.8566 10.4331 14.7999 10.4204 14.7562 10.388C14.6312 10.2953 14.441 10.1115 14.3466 9.89413C14.2107 9.58114 14.1942 9.23291 14.152 9.05285C13.9746 8.29712 13.568 7.64327 13.0608 7.10673C12.5765 6.5945 12.244 6.33513 12.548 5.54573C12.7381 5.05198 13.1305 4.71052 13.7952 4.57263C13.8193 4.56786 13.8437 4.56508 13.8672 4.56135C14.9301 4.37956 15.7183 3.46833 15.7183 2.34233C15.7183 1.08114 14.7305 0.0898997 13.4727 0.0898997C12.2153 0.0898997 11.2274 1.08114 11.2274 2.34233C11.2274 2.74002 11.3374 3.13771 11.5404 3.47449C11.5577 3.50304 11.5753 3.53341 11.5947 3.55996C11.9209 4.0125 12.0035 4.62669 11.7369 5.19125C11.3324 5.96026 10.9256 5.88789 10.1425 5.88789C9.84636 5.88789 9.56051 5.93691 9.27917 5.97909C8.64866 6.0735 8.37044 6.2021 7.35702 6.04981C6.88837 5.97935 6.19116 5.57914 5.62303 5.00946C4.99226 4.31413 4.51021 3.50989 4.49091 2.25208C4.49091 0.990889 3.50302 0 2.24528 0C0.987897 0 0 0.990889 0 2.25208C0 3.30745 0.691502 4.17346 1.65353 4.42824C2.02329 4.52603 2.41468 4.50174 2.79992 4.56473C3.63296 4.7008 4.38416 5.04391 5.02349 5.66904C5.40354 6.01805 5.6944 6.40498 5.90515 6.82567C6.17256 7.3596 6.1704 7.91053 6.18381 8.23429C6.20924 8.8504 6.02964 9.0971 6.02964 10.0132C6.02964 10.1793 6.03959 10.3432 6.05854 10.504C6.17533 11.4937 5.95853 12.697 5.17186 13.3644C4.54723 13.8973 3.72812 14.1703 2.88419 14.1165C2.68797 14.1039 2.47948 14.0542 2.24528 14.0542C0.987897 14.0542 0 15.045 0 16.3066C0 17.5679 0.987897 18.5587 2.24528 18.5587C3.47109 18.5587 4.4403 17.6172 4.48884 16.4023C4.48987 16.3706 4.49091 16.3386 4.49091 16.3066C4.54827 15.4931 4.92037 14.6583 5.69397 14.0304C5.76214 13.9765 5.83144 13.926 5.90134 13.879C6.47103 13.4957 7.83846 13.5016 8.4746 13.7851C8.98425 14.0121 9.54875 14.1385 10.1425 14.1385C10.222 14.1385 10.3011 14.1361 10.3795 14.1317C11.0159 14.096 11.792 14.0461 12.1785 14.6572C12.2091 14.7055 12.2372 14.7553 12.2622 14.8057C12.5897 15.4227 12.5493 16.0904 12.2193 16.6958C12.0469 17.0122 11.9457 17.3679 11.9457 17.7479C11.9457 19.0092 12.9339 20 14.1913 20C15.4488 20 16.437 19.0092 16.437 17.7479C16.437 16.6015 15.6197 15.6769 14.5271 15.5197C13.0826 15.3119 12.7271 13.8687 13.2952 12.7507C13.7123 11.93 14.4851 11.2727 15.1392 11.4702C15.4386 11.5607 15.8184 11.825 16.0161 12.3565C16.0194 12.3664 16.0235 12.3779 16.0269 12.3881C16.3334 13.2615 17.1556 13.8741 18.1435 13.8741C19.4009 13.8741 20.3891 12.8829 20.3891 11.6217C20.3891 10.3605 19.4009 9.36958 18.1435 9.36958Z" fill="white"/>
<path fill-rule="evenodd" clip-rule="evenodd" d="M30.0964 4.50451H34.6769C36.9226 4.50451 38.5395 6.0361 38.5395 8.37834C38.5395 10.7207 36.9226 12.3425 34.6769 12.3425H31.8926V16.9373H30.186V4.50451H30.0964ZM34.4074 10.8109C35.8447 10.8109 36.8326 9.90993 36.8326 8.37834C36.8326 6.937 35.9343 6.0361 34.4074 6.0361H31.8926V10.8109H34.4074Z" fill="white"/>
<path fill-rule="evenodd" clip-rule="evenodd" d="M47.1621 4.50451H48.9582L53.3595 16.9373H51.5631L50.3056 13.3334H45.6348L44.3774 16.9373H42.5812L47.1621 4.50451ZM49.9465 11.8921L48.5991 7.92789C48.4195 7.29729 48.1499 6.12635 48.1499 6.12635C48.1499 6.12635 47.8805 7.20739 47.7009 7.92789L46.3535 11.8921H49.9465Z" fill="white"/>
<path fill-rule="evenodd" clip-rule="evenodd" d="M59.3774 4.50451H63.3295C64.497 4.50451 65.1257 4.59476 65.6644 4.86472C66.8322 5.4055 67.6405 6.57645 67.6405 8.10804C67.6405 9.72987 66.7423 11.0813 65.3952 11.5318C65.3952 11.5318 65.5748 11.7119 65.7544 12.0721L68.3591 16.847H66.3831L63.7783 11.8921H61.1735V16.847H59.467V4.50451H59.3774ZM63.5987 10.4507C64.9461 10.4507 65.8444 9.54972 65.8444 8.19828C65.8444 7.29729 65.4852 6.57645 64.6765 6.21616C64.3174 6.0361 63.9579 6.0361 63.1496 6.0361H61.0839V10.4507H63.5987Z" fill="white"/>
<path fill-rule="evenodd" clip-rule="evenodd" d="M72.94 6.0361V4.50451H83.1792V6.0361H78.9579V16.9373H77.2513V6.0361H72.94Z" fill="white"/>
<path fill-rule="evenodd" clip-rule="evenodd" d="M89.1075 4.50451H90.814L96.2928 12.5226C96.7419 13.2435 97.2809 14.3245 97.2809 14.3245C97.2809 14.3245 97.191 13.2435 97.191 12.5226V4.50451H98.8975V16.9373H97.191L91.7122 8.91913C91.2631 8.19828 90.724 7.11715 90.724 7.11715C90.724 7.11715 90.814 8.19828 90.814 8.91913V16.9373H89.1075V4.50451Z" fill="white"/>
<path fill-rule="evenodd" clip-rule="evenodd" d="M113.448 4.50451V6.0361H107.969V9.90993H112.371V11.4415H107.969V15.4057H113.718V16.9373H106.173V4.50451H113.448Z" fill="white"/>
<path fill-rule="evenodd" clip-rule="evenodd" d="M120.185 4.50451H124.137C125.304 4.50451 125.933 4.59476 126.472 4.86472C127.64 5.4055 128.448 6.57645 128.448 8.10804C128.448 9.72987 127.55 11.0813 126.203 11.5318C126.203 11.5318 126.382 11.7119 126.562 12.0721L129.167 16.847H127.191L124.586 11.8921H121.981V16.847H120.274V4.50451H120.185ZM124.406 10.4507C125.754 10.4507 126.652 9.54972 126.652 8.19828C126.652 7.29729 126.292 6.57645 125.484 6.21616C125.125 6.0361 124.765 6.0361 123.957 6.0361H121.891V10.4507H124.406Z" fill="white"/>
</svg>
